# xmcd
#
# Track frame offsets:
#	150
#	15962
#	32045
#	51425
#	70042
#	88817
#	104067
#	116997
#	133717
#	147580
#	162090
#
# Disc length: 2381 seconds
#
# Revision: 0
# Processed by: cddbd v1.5.2PL0 Copyright (c) Steve Scherf et al.
# Submitted via: audiograbber 1.83.01
#
DISCID=9e094b0b
DTITLE=Brooks and Dunn - Borderline
DYEAR=1996
DGENRE=Country
TTITLE0=My Maria
TTITLE1=A Man This Lonely
TTITLE2=Why Would I Say Goodbye
TTITLE3=Mama Don't Get Dressed Up For Nothing
TTITLE4=I Am That Man
TTITLE5=More Than A Margarita
TTITLE6=Redneck Rhythm and Blues
TTITLE7=My Love Will Follow You
TTITLE8=One Heartache At A Time
TTITLE9=Tequila Town
TTITLE10=White Line Casanova
EXTD=LABEL =Arista Records, Inc.\nID =07822-18810-2\nUPC =07822-18810-29\nCO
EXTD=PYRIGHT =1996\n*****\nSubtitle ="Brooks and Dunn 4"
EXTT0=
EXTT1=
EXTT2=
EXTT3=
EXTT4=
EXTT5=
EXTT6=
EXTT7=
EXTT8=
EXTT9=
EXTT10=
PLAYORDER=
